#!OML:ASF I:\Actors\actors\Patient Classification 1\Patient 1\Session 1\Subject1.ASF
:FULLY-SPECIFIED
:DEGREES
229
root 0.591566 17.4393 9.57354 10.3464 -1.17008 -9.22843
lowerback -3.38932 0.836421 7.18289
upperback -10.1273 1.42128 2.46046
thorax -8.73343 0.247542 -1.44793
lowerneck -11.1037 -1.51848 0.741334
upperneck 26.6889 -3.39105 3.73742
head 10.4175 -1.05895 0.788786
rclavicle -7.95139e-016 2.56432e-014
rhumerus -46.4982 4.94441 -93.225
rradius 35.2287
rwrist 12.4322
rhand 21.1257 -39.2928
rfingers 7.12502
rthumb 45.5822 -62.5592
lclavicle -7.95139e-016 2.56432e-014
lhumerus -52.1964 9.68615 83.0067
lradius 32.1612
lwrist 14.7061
lhand -20.415 10.2509
lfingers 7.12502
lthumb 5.93912 40.1476
rfemur -4.2994 25.0606 26.1866
rtibia 2.27277
rfoot -12.0906 -25.3331
rtoes 4.38245
lfemur 5.24893 -43.2799 -11.5487
ltibia -4.84824
lfoot -19.7582 51.3175
ltoes 7.82147
230
root 0.589489 17.4384 9.57195 10.324 -1.12288 -9.14017
lowerback -3.39978 0.892066 7.16104
upperback -10.0772 1.48832 2.40659
thorax -8.66388 0.283068 -1.496
lowerneck -11.1489 -1.05548 1.04987
upperneck 26.8072 -2.831 3.85133
head 10.4586 -0.751364 0.845947
rclavicle -1.65737e-014 2.06736e-014
rhumerus -46.8345 6.54981 -94.335
rradius 36.6192
rwrist 10.9155
rhand 21.8898 -39.3222
rfingers 7.12502
rthumb 46.2913 -62.2945
lclavicle -1.65737e-014 2.06736e-014
lhumerus -52.3421 8.57007 83.9162
lradius 33.1821
lwrist 16.4794
lhand -20.1712 10.4566
lfingers 7.12502
lthumb 6.17449 40.3466
rfemur -4.2704 25.0649 26.1032
rtibia 2.24816
rfoot -12.1063 -25.4054
rtoes 4.55638
lfemur 5.25681 -43.3544 -11.661
ltibia -4.82583
lfoot -19.8293 51.3129
ltoes 7.92634
231
root 0.587201 17.4379 9.56945 10.3153 -1.08747 -9.08884
lowerback -3.37605 0.963967 7.17504
upperback -10.0532 1.58352 2.36035
thorax -8.64166 0.328175 -1.55697
lowerneck -11.2302 -0.645691 1.44667
upperneck 27.0109 -2.31243 3.74712
head 10.5364 -0.477415 0.806051
rclavicle -5.09386e-015 1.86858e-014
rhumerus -47.325 8.08735 -95.3694
rradius 38.2643
rwrist 9.42096
rhand 22.4228 -39.4754
rfingers 7.12502
rthumb 46.785 -62.2358
lclavicle -5.09386e-015 1.86858e-014
lhumerus -52.5679 7.33642 84.8835
lradius 34.3381
lwrist 18.2267
lhand -19.8394 10.472
lfingers 7.12502
lthumb 6.49484 40.3524
rfemur -4.25586 25.0778 26.0572
rtibia 2.23067
rfoot -12.0977 -25.4451
rtoes 4.74795
lfemur 5.23029 -43.3487 -11.6967
ltibia -4.80967
lfoot -19.7731 51.2725
ltoes 7.76836
232
root 0.584813 17.438 9.56711 10.3107 -1.0512 -9.18927
lowerback -3.33159 1.0831 7.3745
upperback -10.0413 1.74891 2.31921
thorax -8.63903 0.392839 -1.71773
lowerneck -11.1757 -0.304809 1.73985
upperneck 27.0666 -1.89051 3.76272
head 10.5391 -0.249038 0.814201
rclavicle -1.37907e-014 1.64991e-014
rhumerus -47.8282 9.3344 -96.2444
rradius 40.0275
rwrist 8.0039
rhand 22.8862 -39.8534
rfingers 7.12502
rthumb 47.2137 -62.4249
lclavicle -1.37907e-014 1.64991e-014
lhumerus -52.787 5.98763 85.8784
lradius 35.5737
lwrist 20.0424
lhand -19.6389 10.6872
lfingers 7.12502
lthumb 6.68845 40.5616
rfemur -4.25627 25.0938 26.1942
rtibia 2.26037
rfoot -12.0945 -25.4815
rtoes 4.70314
lfemur 5.22325 -43.3697 -11.5457
ltibia -4.84356
lfoot -19.5961 51.3071
ltoes 7.40645
233
root 0.582235 17.4388 9.56559 10.2963 -1.0067 -9.26332
lowerback -3.2964 1.21296 7.5486
upperback -10.0211 1.92563 2.25851
thorax -8.61879 0.464985 -1.88552
lowerneck -11.096 0.00482238 1.90176
upperneck 27.0723 -1.52655 3.9465
head 10.5229 -0.0421504 0.89725
rclavicle 3.37934e-015 -1.27222e-014
rhumerus -48.263 10.3806 -96.9943
rradius 41.8054
rwrist 6.6583
rhand 23.4755 -40.5322
rfingers 7.12502
rthumb 47.7579 -62.8572
lclavicle 3.37934e-015 -1.27222e-014
lhumerus -52.9485 4.64576 86.8084
lradius 36.7132
lwrist 21.7496
lhand -19.3883 10.8927
lfingers 7.12502
lthumb 6.9303 40.7592
rfemur -4.24733 25.0796 26.3052
rtibia 2.28776
rfoot -12.0772 -25.5197
rtoes 4.61715
lfemur 5.26628 -43.4834 -11.4612
ltibia -4.89686
lfoot -19.5673 51.4082
ltoes 7.32491
234
root 0.580191 17.4395 9.56454 10.2765 -0.960754 -9.19018
lowerback -3.29555 1.28672 7.514
upperback -9.98619 2.01985 2.21892
thorax -8.57019 0.515049 -1.91202
lowerneck -11.0885 0.343456 2.12601
upperneck 27.1773 -1.09124 3.94521
head 10.5548 0.184886 0.913234
rclavicle 2.50966e-015 5.36719e-015
rhumerus -48.665 11.5812 -97.6922
rradius 43.5821
rwrist 5.02049
rhand 24.2388 -41.2504
rfingers 7.12502
rthumb 48.4614 -63.2451
lclavicle 2.50966e-015 5.36719e-015
lhumerus -53.1662 3.47413 87.6821
lradius 37.9009
lwrist 23.389
lhand -19.1324 11.0746
lfingers 7.12502
lthumb 7.17738 40.9329
rfemur -4.21239 25.0542 26.2393
rtibia 2.26319
rfoot -12.0668 -25.5596
rtoes 4.67138
lfemur 5.28382 -43.53 -11.5574
ltibia -4.88369
lfoot -19.623 51.3887
ltoes 7.38363
235
root 0.578163 17.4397 9.56284 10.2485 -0.895981 -9.12884
lowerback -3.27718 1.33511 7.48138
upperback -9.95387 2.08402 2.20932
thorax -8.53872 0.550866 -1.90699
lowerneck -11.0337 0.685252 2.41597
upperneck 27.278 -0.625878 3.80686
head 10.576 0.415586 0.872337
rclavicle -2.70844e-015 -2.18663e-015
rhumerus -49.0695 12.8664 -98.3522
rradius 45.3577
rwrist 3.03643
rhand 25.1615 -41.9151
rfingers 7.12502
rthumb 49.3094 -63.493
lclavicle -2.70844e-015 -2.18663e-015
lhumerus -53.4962 2.3585 88.5486
lradius 39.204
lwrist 25.0761
lhand -18.9809 10.9471
lfingers 7.12502
lthumb 7.32354 40.8004
rfemur -4.15881 25.072 26.198
rtibia 2.23007
rfoot -12.0817 -25.6596
rtoes 4.69442
lfemur 5.23416 -43.4033 -11.5806
ltibia -4.84891
lfoot -19.4486 51.2056
ltoes 7.15414
236
root 0.576062 17.4404 9.55902 10.2194 -0.785151 -9.13077
lowerback -3.20779 1.41354 7.5641
upperback -9.93092 2.19594 2.18498
thorax -8.54181 0.599312 -1.98414
lowerneck -10.9785 0.965529 2.56877
upperneck 27.3934 -0.259775 3.82101
head 10.6056 0.604977 0.897721
rclavicle -6.70898e-015 -2.32578e-014
rhumerus -49.5193 14.1161 -98.9962
rradius 47.258
rwrist 0.777989
rhand 26.0908 -42.9532
rfingers 7.12502
rthumb 50.1607 -64.0912
lclavicle -6.70898e-015 -2.32578e-014
lhumerus -53.821 1.24162 89.374
lradius 40.5063
lwrist 26.6867
lhand -19.2459 10.7851
lfingers 7.12502
lthumb 7.06781 40.6471
rfemur -4.11742 25.0824 26.2331
rtibia 2.20584
rfoot -12.1193 -25.794
rtoes 4.6332
lfemur 5.11303 -43.1879 -11.4552
ltibia -4.83097
lfoot -19.009 50.9373
ltoes 6.66265
237
root 0.574743 17.4413 9.55416 10.2073 -0.628283 -9.18398
lowerback -3.14424 1.50685 7.72873
upperback -9.9123 2.3295 2.16119
thorax -8.54306 0.652156 -2.10657
lowerneck -11.0518 1.22317 2.67691
upperneck 27.6661 0.0686873 3.84975
head 10.7202 0.778634 0.935173
rclavicle 7.15625e-015 -4.07509e-014
rhumerus -50.071 15.4606 -99.6874
rradius 49.4383
rwrist -1.76562
rhand 26.7906 -44.6651
rfingers 7.12502
rthumb 50.7998 -65.4575
lclavicle 7.15625e-015 -4.07509e-014
lhumerus -54.1493 0.0690231 90.3472
lradius 42.268
lwrist 29.2198
lhand -20.7392 12.6513
lfingers 7.12502
lthumb 5.62614 42.5566
rfemur -4.10328 25.0838 26.3179
rtibia 2.19292
rfoot -12.2242 -25.9302
rtoes 4.88836
lfemur 4.95634 -43.0102 -11.24
ltibia -4.81983
lfoot -18.672 50.6598
ltoes 6.3401
238
root 0.573179 17.4423 9.5495 10.2261 -0.428403 -9.2072
lowerback -3.10504 1.57355 7.84968
upperback -9.91362 2.42543 2.13745
thorax -8.55596 0.689024 -2.20298
lowerneck -10.9072 1.5087 3.10389
upperneck 27.7286 0.469617 3.57241
head 10.7164 0.976113 0.811769
rclavicle -2.08972e-014 1.96797e-014
rhumerus -50.7375 16.8879 -100.426
rradius 51.8555
rwrist -4.51915
rhand 27.1221 -46.6793
rfingers 7.12502
rthumb 51.102 -67.3036
lclavicle -2.08972e-014 1.96797e-014
lhumerus -54.425 -0.884095 91.0894
lradius 43.7028
lwrist 31.3568
lhand -21.4011 13.3668
lfingers 7.12502
lthumb 4.98705 43.2881
rfemur -4.11562 25.1481 26.36
rtibia 2.17329
rfoot -12.3484 -26.1533
rtoes 5.36836
lfemur 4.74382 -42.9437 -11.0286
ltibia -4.78981
lfoot -18.3779 50.4658
ltoes 6.02312
239
root 0.570808 17.4441 9.54429 10.2493 -0.208725 -9.09857
lowerback -3.03603 1.63276 7.85447
upperback -9.92261 2.50919 2.0581
thorax -8.59465 0.725189 -2.29497
lowerneck -10.738 1.77046 3.42402
upperneck 27.6623 0.836897 3.40403
head 10.6612 1.15736 0.739211
rclavicle -4.47266e-016 7.95139e-016
rhumerus -51.4942 18.2907 -101.17
rradius 54.2803
rwrist -7.10944
rhand 27.1299 -47.8956
rfingers 7.12502
rthumb 51.1091 -68.5159
lclavicle -4.47266e-016 7.95139e-016
lhumerus -54.6905 -1.82977 91.7353
lradius 45.031
lwrist 33.5567
lhand -21.553 13.5653
lfingers 7.12502
lthumb 4.84043 43.49
rfemur -4.12878 25.212 26.2485
rtibia 2.13209
rfoot -12.3952 -26.4403
rtoes 5.41641
lfemur 4.504 -42.9475 -10.9641
ltibia -4.73621
lfoot -17.9913 50.3134
ltoes 5.59109
240
root 0.568901 17.4444 9.53921 10.2141 0.00116079 -9.04571
lowerback -2.922 1.72584 7.94984
upperback -9.89769 2.6425 1.97168
thorax -8.61458 0.779746 -2.4476
lowerneck -11.1695 1.9566 3.02862
upperneck 28.1095 1.03094 3.87122
head 10.9076 1.27457 1.01315
rclavicle -2.93207e-015 2.34566e-014
rhumerus -52.286 19.5901 -101.844
rradius 56.7575
rwrist -9.49273
rhand 26.9863 -48.729
rfingers 7.12502
rthumb 50.9783 -69.4225
lclavicle -2.93207e-015 2.34566e-014
lhumerus -54.9953 -2.82488 92.3799
lradius 46.5771
lwrist 35.9715
lhand -21.612 14.1172
lfingers 7.12502
lthumb 4.7834 44.0432
rfemur -4.08111 25.2108 26.2323
rtibia 2.11574
rfoot -12.4262 -26.6572
rtoes 5.28493
lfemur 4.38607 -42.8384 -10.8985
ltibia -4.74627
lfoot -17.5928 50.0655
ltoes 5.13043
241
root 0.567497 17.4475 9.53752 10.0156 0.305731 -9.04795
lowerback -2.71774 1.79087 8.11507
upperback -9.81578 2.74726 1.90229
thorax -8.62517 0.817059 -2.62251
lowerneck -11.5815 2.35939 3.51479
upperneck 28.7418 1.60941 3.36886
head 11.2397 1.54668 0.840249
rclavicle -8.05078e-015 -4.77083e-015
rhumerus -53.0531 20.7407 -102.373
rradius 59.5095
rwrist -12.1504
rhand 26.5962 -50.3936
rfingers 7.12502
rthumb 50.6225 -71.2832
lclavicle -8.05078e-015 -4.77083e-015
lhumerus -55.3102 -3.76117 93.0051
lradius 48.2559
lwrist 38.3431
lhand -21.7249 14.8835
lfingers 7.12502
lthumb 4.67445 44.812
rfemur -3.76313 25.263 26.3968
rtibia 2.03116
rfoot -12.5334 -27.0017
rtoes 5.50708
lfemur 4.50443 -42.6375 -10.8984
ltibia -4.82847
lfoot -16.9451 49.6757
ltoes 4.29131
242
root 0.563908 17.4556 9.539 9.71805 0.742522 -8.99273
lowerback -2.43917 1.78991 8.20635
upperback -9.71316 2.768 1.8169
thorax -8.66507 0.817179 -2.77322
lowerneck -11.7273 2.5967 3.69558
upperneck 28.9391 1.90008 3.37303
head 11.3491 1.70544 0.855873
rclavicle -1.93815e-015 2.06736e-014
rhumerus -53.8361 21.7413 -102.82
rradius 62.3805
rwrist -14.5191
rhand 26.0231 -52.2979
rfingers 7.12502
rthumb 50.0988 -73.4686
lclavicle -1.93815e-015 2.06736e-014
lhumerus -55.6718 -4.59066 93.5277
lradius 49.9693
lwrist 40.3454
lhand -21.6367 15.2705
lfingers 7.12502
lthumb 4.75956 45.1971
rfemur -3.23651 25.4957 26.596
rtibia 1.86043
rfoot -12.7402 -27.6416
rtoes 6.08984
lfemur 4.71351 -42.4444 -10.9883
ltibia -4.93436
lfoot -16.1368 49.1513
ltoes 3.38696
